<mxfile host="app.diagrams.net" modified="2022-04-29T14:49:37.397Z" agent="5.0 (Macintosh; Intel Mac OS X 10_15_7) AppleWebKit/537.36 (KHTML, like Gecko) Chrome/101.0.4951.41 Safari/537.36" etag="AEA753F1XZk0_t-NOjYA" version="17.5.0" type="github">
  <diagram id="XqNUQqwA1aWM7nsf1Fx2" name="Page-1">
    <mxGraphModel dx="524" dy="923" grid="1" gridSize="10" guides="1" tooltips="1" connect="1" arrows="1" fold="1" page="1" pageScale="1" pageWidth="827" pageHeight="1169" math="0" shadow="0">
      <root>
        <mxCell id="0" />
        <mxCell id="1" parent="0" />
        <mxCell id="0QBkQzOjUZpYRuZvdp-9-1" style="vsdxID=9;fillColor=none;gradientColor=none;strokeColor=none;strokeWidth=2;spacingTop=-3;spacingBottom=-3;spacingLeft=-3;spacingRight=-3;labelBackgroundColor=none;rounded=1;html=1;whiteSpace=wrap;" parent="1" vertex="1">
          <mxGeometry x="1059" y="180" width="152" height="255" as="geometry" />
        </mxCell>
        <mxCell id="0QBkQzOjUZpYRuZvdp-9-2" style="vsdxID=10;fillColor=#ffffff;gradientColor=none;shape=stencil(fZNRcoMgEIZPwysDbFL0sZMmF+gJnEgrU6sZYlrT05e4qLAh8Ql2/x++XVwGu3NTnQxT4jy4/sv82npoGLwxpWzXGGcHv2KwZ7D76J35dP2lq3F/qrxSiSliavTIm1qJyh3f7Z/BmOAg9RYT6Pzuf243jiGPqeusLjZT4IDa48WhWKZquRyuy+jbbsJNowpEXEKwqOSEEXCreHBcIc5P14tXT9DaLqIt9aK/k9/TlgUvNCEmfEIQvIcVAXVArmUZ5tURqEou9TPs1SAXxwuk4HFptJYZNWoWgX+Eqkh3E30GdH1dij6mzz0zxpVAqoBsdzKQz/9Yv5hGA4fGti1OVpyno+RDOIaw/wc=);strokeColor=#5e5e5e;strokeWidth=2;spacingTop=-3;spacingBottom=-3;spacingLeft=-3;spacingRight=-3;labelBackgroundColor=none;rounded=1;html=1;whiteSpace=wrap;" parent="0QBkQzOjUZpYRuZvdp-9-1" vertex="1">
          <mxGeometry width="152" height="255" as="geometry" />
        </mxCell>
        <mxCell id="0QBkQzOjUZpYRuZvdp-9-3" style="vsdxID=28;fillColor=none;gradientColor=none;strokeColor=none;shadow=1;spacingTop=-3;spacingBottom=-3;spacingLeft=-3;spacingRight=-3;labelBackgroundColor=none;rounded=1;html=1;whiteSpace=wrap;" parent="1" vertex="1">
          <mxGeometry x="1093" y="221" width="88" height="114" as="geometry" />
        </mxCell>
        <mxCell id="0QBkQzOjUZpYRuZvdp-9-4" style="vsdxID=29;fillColor=#FEFEFE;gradientColor=none;shape=stencil(hZNRkoIwDIZP09dOm6gsj466F/AEjHSXjghMxRU9/VZSti1b9Y0m/998TQjDzbkqOsVAnHvTHtVVl33FcMsAdFMpo3v7xXDHcPPVGvVt2ktT0rkrrBLEGFEleeRDDaIwh72+K4oJjjJbUoKcp/bnUXFweUrd3A1c0iWfpD1cDIllrJ6O3N08wBRYLZwEIseAU4EFOgGGgrGeWNuStW4CvPyDL7MIUbziy3OOqxljTCiFmAH+vQHnCkw1JQHpHe78to/eIb0lgxg1fMxED8ABYt6wRfhP9pTZDyLtSQzfD1cmcOKBe+LgYRhLMN2uBO3rv9R+jOtAi6LrmrYpzM/Xx4Zo9XD3Cw==);strokeColor=none;strokeWidth=0;shadow=1;spacingTop=-3;spacingBottom=-3;spacingLeft=-3;spacingRight=-3;labelBackgroundColor=none;rounded=1;html=1;whiteSpace=wrap;" parent="0QBkQzOjUZpYRuZvdp-9-3" vertex="1">
          <mxGeometry width="88" height="114" as="geometry" />
        </mxCell>
        <mxCell id="0QBkQzOjUZpYRuZvdp-9-5" style="vsdxID=30;fillColor=#757575;gradientColor=none;shape=stencil(vVbbcsIgEP2avO7AQiA8dqz9D6fGmqnVTtRW/75JA2ZdiNG21idc9sDZs5eQqcl2OXsvMxTbXb15LT+r+W6ZqccMsVovy7raNatMTTM1WWzq8qXe7Nfz7v/7rPVsV2+bj/aEQ4ezFrBoUSiO3iJA62/LUwd43tcdQnoHB1J7iOQYccDOVAiwhSM/j/DbxjXbHqE8AkFY7+VNpjjjIh4SdAoFWp3TMRakZHR0f3igkEPOGOiYgQIjGYNVtSYKUlBnQQe5uaQghXgTWjA5lcsy/iRKb0IDQqcgw3qiBotjeg4kLhBVoNw5N1oQgRuGi050aKUp7jUkLjnnmMT8AMADRgGFYUES+j4i6QAlC5JI4SOSFpy6XXNpIOcFMZTdwCfvb8KRGlIxRCVLNZEBCkq2RCIaAgkd2fcaxiGHhiRtO6znNTOBJiswIAMH48SHUiaDLCrSEwU2IhOqOT4Toqn61/6n7kr7C57FfwBcDuGKL8/Nn6pf3pAYHnyUj91wf0DUfmMD8P6AKIZm0T84FtVqRXf406Qxdc8aNf0C);strokeColor=#000000;shadow=1;spacingTop=-3;spacingBottom=-3;spacingLeft=-3;spacingRight=-3;labelBackgroundColor=none;rounded=0;html=1;whiteSpace=wrap;" parent="0QBkQzOjUZpYRuZvdp-9-3" vertex="1">
          <mxGeometry width="88" height="114" as="geometry" />
        </mxCell>
        <mxCell id="0QBkQzOjUZpYRuZvdp-9-6" value="&lt;p style=&quot;align:center;margin-left:0;margin-right:0;margin-top:0px;margin-bottom:0px;text-indent:0;valign:middle;direction:ltr;&quot;&gt;&lt;font style=&quot;font-size:21px;font-family:Arial;color:#000000;direction:ltr;letter-spacing:0px;line-height:100%;opacity:1&quot;&gt;Web App&lt;/font&gt;&lt;/p&gt;" style="text;vsdxID=28;fillColor=none;gradientColor=none;strokeColor=none;shadow=1;spacingTop=-3;spacingBottom=-3;spacingLeft=-3;spacingRight=-3;labelBackgroundColor=none;rounded=1;html=1;whiteSpace=wrap;verticalAlign=middle;align=center;;html=1;" parent="0QBkQzOjUZpYRuZvdp-9-3" vertex="1">
          <mxGeometry y="109.55" width="88.9" height="29.85" as="geometry" />
        </mxCell>
        <mxCell id="0QBkQzOjUZpYRuZvdp-9-7" value="" style="edgeStyle=orthogonalEdgeStyle;rounded=0;orthogonalLoop=1;jettySize=auto;html=1;" parent="1" source="0QBkQzOjUZpYRuZvdp-9-8" target="0QBkQzOjUZpYRuZvdp-9-2" edge="1">
          <mxGeometry relative="1" as="geometry" />
        </mxCell>
        <mxCell id="0QBkQzOjUZpYRuZvdp-9-8" style="vsdxID=224;fillColor=none;gradientColor=none;strokeColor=none;strokeWidth=0;spacingTop=-3;spacingBottom=-3;spacingLeft=-3;spacingRight=-3;labelBackgroundColor=none;rounded=1;html=1;whiteSpace=wrap;" parent="1" vertex="1">
          <mxGeometry x="894" y="196" width="55" height="88" as="geometry" />
        </mxCell>
        <mxCell id="0QBkQzOjUZpYRuZvdp-9-9" style="vsdxID=225;fillColor=#7d7c7c;gradientColor=none;shape=stencil(pZLRDoIwDEW/Zq/Ntgpjjwb1P4igLCKQCYp/L2MzjqlR45669p71UkowPZVZWxBOT51uDsVF5V1JcEU4V3VZaNWNEcE1wXTX6GKvm77O7b3NjNJEx+ZsXhgsF1GDcHq1V4QkmhIbK65U7YmFBJbM9EyAxF8AzkCwv4Btr+0HsAcipHcc7spoeOod9/zAbT2Ogd4Rl0IJ4q7CYEwYSiZXdPnCGCLIWedF4Mxr4zpzCkng5Z19fCLw5cAma/Mhe8xXf/HDjozBY7t2qqr8SriHY8ruMK5v);strokeColor=#5e5e5e;strokeWidth=0;spacingTop=-3;spacingBottom=-3;spacingLeft=-3;spacingRight=-3;labelBackgroundColor=none;rounded=0;html=1;whiteSpace=wrap;" parent="0QBkQzOjUZpYRuZvdp-9-8" vertex="1">
          <mxGeometry width="55" height="88" as="geometry" />
        </mxCell>
        <mxCell id="0QBkQzOjUZpYRuZvdp-9-10" style="vsdxID=226;fillColor=#7d7c7c;gradientColor=none;shape=stencil(pZPdEoIgFISfhtszwEHRy6af93DSksm0IS17+zAgS5us8Q6Xb2EZ9xBcnvPklBFOz7WuDtlVpXVOcEU4V2WeaVWbFcE1weWu0tleV02Z2u9T0pHd6lhduhNa6wtDCILOxenNKkKAjB/Kxhq2jbYOZoEoAOotbOihLbcSo9QxTggYSOYYHDJOCDnE2N9NF+b6QpUveXvLM4w71aV9xyMK0Sw+jL/yUoKQ8wwTiTgCm8VPBGJm+68XjA0Tif76Ye/woA/jLnqcjTvmeygg9m3l47a64iGC8BR+nIMPXfxhdsyin7ydKorXneGMGsnON67v);strokeColor=#5e5e5e;strokeWidth=0;spacingTop=-3;spacingBottom=-3;spacingLeft=-3;spacingRight=-3;labelBackgroundColor=none;rounded=0;html=1;whiteSpace=wrap;" parent="0QBkQzOjUZpYRuZvdp-9-8" vertex="1">
          <mxGeometry width="55" height="88" as="geometry" />
        </mxCell>
        <mxCell id="0QBkQzOjUZpYRuZvdp-9-11" style="vsdxID=227;fillColor=#d2d3d3;gradientColor=none;shape=stencil(jZPRbsMgDEW/hldkMAR4nLruP6o1baJlSZWmW/f3M4KmOM3U5cmYe82xCQI352Z3qoWG8zQOH/V3u58aga9C67Zv6rGdKBK4Fbg5DGN9HIdLv0/r0y4qY/Q5fMUK1+SzEC0aftIyrd6Ssmv7fyrfL2MqqtJmZWXwWZ5TIMFB8TkMSXDVSeC89DZ7cspLZbIIZ5HTWZRTylPlOwy8rPCQrVKcRzsZdCg+5DjUgtUcBy0RFi0ozmaCtIazkcP5J2yI0lacLdqgZDOcjYbpORp1kw+acQrRbVLUMi5o+B0XnlXLI33hyBnPWak9X947GE4OD0P0gWPDkwGWFsWL6sWvu37mvP3HgRTfn8+h7bp5GhQsHxql0iPF7S8=);strokeColor=#5e5e5e;strokeWidth=0;spacingTop=-3;spacingBottom=-3;spacingLeft=-3;spacingRight=-3;labelBackgroundColor=none;rounded=0;html=1;whiteSpace=wrap;" parent="0QBkQzOjUZpYRuZvdp-9-8" vertex="1">
          <mxGeometry width="55" height="88" as="geometry" />
        </mxCell>
        <mxCell id="0QBkQzOjUZpYRuZvdp-9-12" style="vsdxID=228;fillColor=#d2d3d3;gradientColor=none;shape=stencil(pZPRjoIwEEW/pq+Taael9NGo+x9mxaURwVRc8e8Xtm1AMKLhbbg9l17CHUbrS747Z0zgpXbVMbvZfZ0z2jAhbJlnztbtxGjLaH2oXPbjqmu598/nXUd206n67d7QeF+SgFKdS+DdKxLBmH/lyxu+r847uAdSBRgtfOzBRniJIwYmCFJDGmwNjZkgKANc9nfjqr2+sOUgb28JYTgYGqZ9xFOEdBGfqJe81iD1MsNMIkHAF/EzgbgB/dEXTA0ziT76YY/wqA/TLkacTzsWeyjBxLaKaVtD8YhARoqe7sGTLr6xO+3Qb97BFsXwZLyjreT3m7Z/);strokeColor=#5e5e5e;strokeWidth=0;spacingTop=-3;spacingBottom=-3;spacingLeft=-3;spacingRight=-3;labelBackgroundColor=none;rounded=0;html=1;whiteSpace=wrap;" parent="0QBkQzOjUZpYRuZvdp-9-8" vertex="1">
          <mxGeometry width="55" height="88" as="geometry" />
        </mxCell>
        <mxCell id="0QBkQzOjUZpYRuZvdp-9-13" value="&lt;p style=&quot;margin-left: 0 ; margin-right: 0 ; margin-top: 0px ; margin-bottom: 0px ; text-indent: 0 ; direction: ltr&quot;&gt;&lt;font style=&quot;font-size: 21px ; font-family: &amp;#34;arial&amp;#34; ; color: #333333 ; direction: ltr ; letter-spacing: 0px ; line-height: 100% ; opacity: 1&quot;&gt;&lt;b&gt;Users&lt;/b&gt;&lt;/font&gt;&lt;/p&gt;" style="text;vsdxID=224;fillColor=none;gradientColor=none;strokeColor=none;strokeWidth=0;spacingTop=-3;spacingBottom=-3;spacingLeft=-3;spacingRight=-3;labelBackgroundColor=none;rounded=1;html=1;whiteSpace=wrap;verticalAlign=middle;align=center;;html=1;" parent="0QBkQzOjUZpYRuZvdp-9-8" vertex="1">
          <mxGeometry y="93.3" width="55.25" height="12.7" as="geometry" />
        </mxCell>
        <mxCell id="0QBkQzOjUZpYRuZvdp-9-14" value="" style="edgeStyle=orthogonalEdgeStyle;rounded=0;orthogonalLoop=1;jettySize=auto;html=1;" parent="1" source="0QBkQzOjUZpYRuZvdp-9-15" target="0QBkQzOjUZpYRuZvdp-9-2" edge="1">
          <mxGeometry relative="1" as="geometry" />
        </mxCell>
        <mxCell id="0QBkQzOjUZpYRuZvdp-9-15" style="vsdxID=229;fillColor=none;gradientColor=none;strokeColor=none;strokeWidth=0;spacingTop=-3;spacingBottom=-3;spacingLeft=-3;spacingRight=-3;labelBackgroundColor=none;rounded=1;html=1;whiteSpace=wrap;" parent="1" vertex="1">
          <mxGeometry x="894" y="335" width="55" height="88" as="geometry" />
        </mxCell>
        <mxCell id="0QBkQzOjUZpYRuZvdp-9-16" style="vsdxID=230;fillColor=#7d7c7c;gradientColor=none;shape=stencil(pZLRDoIwDEW/Zq/Ntgpjjwb1P4igLCKQCYp/L2MzjqlR45669p71UkowPZVZWxBOT51uDsVF5V1JcEU4V3VZaNWNEcE1wXTX6GKvm77O7b3NjNJEx+ZsXhgsF1GDcHq1V4QkmhIbK65U7YmFBJbM9EyAxF8AzkCwv4Btr+0HsAcipHcc7spoeOod9/zAbT2Ogd4Rl0IJ4q7CYEwYSiZXdPnCGCLIWedF4Mxr4zpzCkng5Z19fCLw5cAma/Mhe8xXf/HDjozBY7t2qqr8SriHY8ruMK5v);strokeColor=#5e5e5e;strokeWidth=0;spacingTop=-3;spacingBottom=-3;spacingLeft=-3;spacingRight=-3;labelBackgroundColor=none;rounded=0;html=1;whiteSpace=wrap;" parent="0QBkQzOjUZpYRuZvdp-9-15" vertex="1">
          <mxGeometry width="55" height="88" as="geometry" />
        </mxCell>
        <mxCell id="0QBkQzOjUZpYRuZvdp-9-17" style="vsdxID=231;fillColor=#7d7c7c;gradientColor=none;shape=stencil(pZPdEoIgFISfhtszwEHRy6af93DSksm0IS17+zAgS5us8Q6Xb2EZ9xBcnvPklBFOz7WuDtlVpXVOcEU4V2WeaVWbFcE1weWu0tleV02Z2u9T0pHd6lhduhNa6wtDCILOxenNKkKAjB/Kxhq2jbYOZoEoAOotbOihLbcSo9QxTggYSOYYHDJOCDnE2N9NF+b6QpUveXvLM4w71aV9xyMK0Sw+jL/yUoKQ8wwTiTgCm8VPBGJm+68XjA0Tif76Ye/woA/jLnqcjTvmeygg9m3l47a64iGC8BR+nIMPXfxhdsyin7ydKorXneGMGsnON67v);strokeColor=#5e5e5e;strokeWidth=0;spacingTop=-3;spacingBottom=-3;spacingLeft=-3;spacingRight=-3;labelBackgroundColor=none;rounded=0;html=1;whiteSpace=wrap;" parent="0QBkQzOjUZpYRuZvdp-9-15" vertex="1">
          <mxGeometry width="55" height="88" as="geometry" />
        </mxCell>
        <mxCell id="0QBkQzOjUZpYRuZvdp-9-18" style="vsdxID=232;fillColor=#d2d3d3;gradientColor=none;shape=stencil(jZPRbsMgDEW/hldkMAR4nLruP6o1baJlSZWmW/f3M4KmOM3U5cmYe82xCQI352Z3qoWG8zQOH/V3u58aga9C67Zv6rGdKBK4Fbg5DGN9HIdLv0/r0y4qY/Q5fMUK1+SzEC0aftIyrd6Ssmv7fyrfL2MqqtJmZWXwWZ5TIMFB8TkMSXDVSeC89DZ7cspLZbIIZ5HTWZRTylPlOwy8rPCQrVKcRzsZdCg+5DjUgtUcBy0RFi0ozmaCtIazkcP5J2yI0lacLdqgZDOcjYbpORp1kw+acQrRbVLUMi5o+B0XnlXLI33hyBnPWak9X947GE4OD0P0gWPDkwGWFsWL6sWvu37mvP3HgRTfn8+h7bp5GhQsHxql0iPF7S8=);strokeColor=#5e5e5e;strokeWidth=0;spacingTop=-3;spacingBottom=-3;spacingLeft=-3;spacingRight=-3;labelBackgroundColor=none;rounded=0;html=1;whiteSpace=wrap;" parent="0QBkQzOjUZpYRuZvdp-9-15" vertex="1">
          <mxGeometry width="55" height="88" as="geometry" />
        </mxCell>
        <mxCell id="0QBkQzOjUZpYRuZvdp-9-19" style="vsdxID=233;fillColor=#d2d3d3;gradientColor=none;shape=stencil(pZPRjoIwEEW/pq+Taael9NGo+x9mxaURwVRc8e8Xtm1AMKLhbbg9l17CHUbrS747Z0zgpXbVMbvZfZ0z2jAhbJlnztbtxGjLaH2oXPbjqmu598/nXUd206n67d7QeF+SgFKdS+DdKxLBmH/lyxu+r847uAdSBRgtfOzBRniJIwYmCFJDGmwNjZkgKANc9nfjqr2+sOUgb28JYTgYGqZ9xFOEdBGfqJe81iD1MsNMIkHAF/EzgbgB/dEXTA0ziT76YY/wqA/TLkacTzsWeyjBxLaKaVtD8YhARoqe7sGTLr6xO+3Qb97BFsXwZLyjreT3m7Z/);strokeColor=#5e5e5e;strokeWidth=0;spacingTop=-3;spacingBottom=-3;spacingLeft=-3;spacingRight=-3;labelBackgroundColor=none;rounded=0;html=1;whiteSpace=wrap;" parent="0QBkQzOjUZpYRuZvdp-9-15" vertex="1">
          <mxGeometry width="55" height="88" as="geometry" />
        </mxCell>
        <mxCell id="0QBkQzOjUZpYRuZvdp-9-20" value="&lt;p style=&quot;align:center;margin-left:0;margin-right:0;margin-top:0px;margin-bottom:0px;text-indent:0;valign:middle;direction:ltr;&quot;&gt;&lt;font style=&quot;font-size:21px;font-family:Arial;color:#333333;direction:ltr;letter-spacing:0px;line-height:100%;opacity:1&quot;&gt;&lt;b&gt;Admin&lt;/b&gt;&lt;/font&gt;&lt;/p&gt;" style="text;vsdxID=229;fillColor=none;gradientColor=none;strokeColor=none;strokeWidth=0;spacingTop=-3;spacingBottom=-3;spacingLeft=-3;spacingRight=-3;labelBackgroundColor=none;rounded=1;html=1;whiteSpace=wrap;verticalAlign=middle;align=center;;html=1;" parent="0QBkQzOjUZpYRuZvdp-9-15" vertex="1">
          <mxGeometry y="75.3" width="55.25" height="12.7" as="geometry" />
        </mxCell>
        <mxCell id="0QBkQzOjUZpYRuZvdp-9-21" style="edgeStyle=orthogonalEdgeStyle;rounded=0;orthogonalLoop=1;jettySize=auto;html=1;fontSize=24;startArrow=classic;startFill=1;entryX=0.001;entryY=0.515;entryDx=0;entryDy=0;entryPerimeter=0;" parent="1" source="0QBkQzOjUZpYRuZvdp-9-119" edge="1">
          <mxGeometry relative="1" as="geometry">
            <mxPoint x="1520" y="470" as="sourcePoint" />
            <Array as="points">
              <mxPoint x="1610" y="555" />
              <mxPoint x="1610" y="308" />
              <mxPoint x="1661" y="308" />
            </Array>
            <mxPoint x="2120.73" y="314.95500000000004" as="targetPoint" />
          </mxGeometry>
        </mxCell>
        <mxCell id="0QBkQzOjUZpYRuZvdp-9-22" value="" style="vsdxID=6;fillColor=#ffffff;gradientColor=none;shape=stencil(fZPbkoIwDIafprdMm6jIpePhBfYJGKnSEYGp6OI+/VYC9mCFqzb/n/ZLShhub2XeSgb81unmIn9V0ZUMdwxA1aXUqjMrhnuG21Oj5Vk397qgfZsbJ/AhIgvKES838Fwff9SfpBhPUKRLEijz2jxeN/ajTtJzci9XQ+BA3uNdk1n47mmbwHh0D1NEYOZ/Ywp4J/T4xht1dPXher4xBJWqHdosS1IfeI7WuNergNjHFZwHeLYiDC0Y61EE0ma8MRaLOU6bYMHToLFuLSH8hOp0J4D/hmrbH/FHnv/r64aV9P5zP+GzMPQdGG1WjHn2jzWLYTRoaFRV0WS5ejhKJkRjiPt/);strokeColor=#5e5e5e;strokeWidth=3;spacingTop=-3;spacingBottom=-3;spacingLeft=-3;spacingRight=-3;labelBackgroundColor=none;rounded=1;html=1;whiteSpace=wrap;" parent="1" vertex="1">
          <mxGeometry x="1560" y="59" width="730" height="497" as="geometry" />
        </mxCell>
        <mxCell id="0QBkQzOjUZpYRuZvdp-9-23" value="" style="edgeStyle=orthogonalEdgeStyle;rounded=0;orthogonalLoop=1;jettySize=auto;html=1;startArrow=none;" parent="1" source="0QBkQzOjUZpYRuZvdp-9-81" edge="1">
          <mxGeometry relative="1" as="geometry">
            <mxPoint x="1740" y="308" as="targetPoint" />
          </mxGeometry>
        </mxCell>
        <mxCell id="0QBkQzOjUZpYRuZvdp-9-24" value="AWS Cloud" style="text;html=1;align=center;verticalAlign=middle;resizable=0;points=[];autosize=1;strokeColor=none;fillColor=none;fontSize=18;" parent="1" vertex="1">
          <mxGeometry x="949" y="60" width="110" height="30" as="geometry" />
        </mxCell>
        <mxCell id="0QBkQzOjUZpYRuZvdp-9-39" value="" style="group" parent="1" vertex="1" connectable="0">
          <mxGeometry x="1780" y="110" width="450" height="140" as="geometry" />
        </mxCell>
        <mxCell id="0QBkQzOjUZpYRuZvdp-9-40" value="" style="rounded=0;whiteSpace=wrap;html=1;fontSize=18;" parent="0QBkQzOjUZpYRuZvdp-9-39" vertex="1">
          <mxGeometry width="450" height="140" as="geometry" />
        </mxCell>
        <mxCell id="0QBkQzOjUZpYRuZvdp-9-41" value="" style="rounded=0;whiteSpace=wrap;html=1;fontSize=18;" parent="0QBkQzOjUZpYRuZvdp-9-39" vertex="1">
          <mxGeometry x="30" y="30" width="140" height="80" as="geometry" />
        </mxCell>
        <mxCell id="0QBkQzOjUZpYRuZvdp-9-42" value="" style="sketch=0;points=[[0,0,0],[0.25,0,0],[0.5,0,0],[0.75,0,0],[1,0,0],[0,1,0],[0.25,1,0],[0.5,1,0],[0.75,1,0],[1,1,0],[0,0.25,0],[0,0.5,0],[0,0.75,0],[1,0.25,0],[1,0.5,0],[1,0.75,0]];outlineConnect=0;fontColor=#232F3E;gradientColor=#F78E04;gradientDirection=north;fillColor=#D05C17;strokeColor=#ffffff;dashed=0;verticalLabelPosition=bottom;verticalAlign=top;align=center;html=1;fontSize=12;fontStyle=0;aspect=fixed;shape=mxgraph.aws4.resourceIcon;resIcon=mxgraph.aws4.ec2;" parent="0QBkQzOjUZpYRuZvdp-9-39" vertex="1">
          <mxGeometry x="30" y="30" width="31" height="31" as="geometry" />
        </mxCell>
        <mxCell id="0QBkQzOjUZpYRuZvdp-9-43" value="Frontend EC2" style="text;html=1;align=center;verticalAlign=middle;resizable=0;points=[];autosize=1;strokeColor=none;fillColor=none;fontSize=13;" parent="0QBkQzOjUZpYRuZvdp-9-39" vertex="1">
          <mxGeometry x="61" y="35.5" width="100" height="20" as="geometry" />
        </mxCell>
        <mxCell id="0QBkQzOjUZpYRuZvdp-9-44" value="" style="sketch=0;points=[[0,0,0],[0.25,0,0],[0.5,0,0],[0.75,0,0],[1,0,0],[0,1,0],[0.25,1,0],[0.5,1,0],[0.75,1,0],[1,1,0],[0,0.25,0],[0,0.5,0],[0,0.75,0],[1,0.25,0],[1,0.5,0],[1,0.75,0]];outlineConnect=0;fontColor=#232F3E;gradientColor=#F78E04;gradientDirection=north;fillColor=#D05C17;strokeColor=#ffffff;dashed=0;verticalLabelPosition=bottom;verticalAlign=top;align=center;html=1;fontSize=12;fontStyle=0;aspect=fixed;shape=mxgraph.aws4.resourceIcon;resIcon=mxgraph.aws4.ec2;" parent="0QBkQzOjUZpYRuZvdp-9-39" vertex="1">
          <mxGeometry x="260" y="30" width="31" height="31" as="geometry" />
        </mxCell>
        <mxCell id="0QBkQzOjUZpYRuZvdp-9-45" value="" style="rounded=0;whiteSpace=wrap;html=1;fontSize=18;" parent="0QBkQzOjUZpYRuZvdp-9-39" vertex="1">
          <mxGeometry x="260" y="30" width="140" height="80" as="geometry" />
        </mxCell>
        <mxCell id="0QBkQzOjUZpYRuZvdp-9-46" value="Backend EC2" style="text;html=1;align=center;verticalAlign=middle;resizable=0;points=[];autosize=1;strokeColor=none;fillColor=none;fontSize=13;" parent="0QBkQzOjUZpYRuZvdp-9-39" vertex="1">
          <mxGeometry x="291" y="35.5" width="100" height="20" as="geometry" />
        </mxCell>
        <mxCell id="0QBkQzOjUZpYRuZvdp-9-47" value="" style="sketch=0;points=[[0,0,0],[0.25,0,0],[0.5,0,0],[0.75,0,0],[1,0,0],[0,1,0],[0.25,1,0],[0.5,1,0],[0.75,1,0],[1,1,0],[0,0.25,0],[0,0.5,0],[0,0.75,0],[1,0.25,0],[1,0.5,0],[1,0.75,0]];outlineConnect=0;fontColor=#232F3E;gradientColor=#F78E04;gradientDirection=north;fillColor=#D05C17;strokeColor=#ffffff;dashed=0;verticalLabelPosition=bottom;verticalAlign=top;align=center;html=1;fontSize=12;fontStyle=0;aspect=fixed;shape=mxgraph.aws4.resourceIcon;resIcon=mxgraph.aws4.ec2;" parent="0QBkQzOjUZpYRuZvdp-9-39" vertex="1">
          <mxGeometry x="260" y="30" width="31" height="31" as="geometry" />
        </mxCell>
        <mxCell id="0QBkQzOjUZpYRuZvdp-9-48" value="" style="dashed=0;outlineConnect=0;html=1;align=center;labelPosition=center;verticalLabelPosition=bottom;verticalAlign=top;shape=mxgraph.weblogos.apache;fontSize=13;" parent="0QBkQzOjUZpYRuZvdp-9-39" vertex="1">
          <mxGeometry x="61" y="55.5" width="20" height="47" as="geometry" />
        </mxCell>
        <mxCell id="0QBkQzOjUZpYRuZvdp-9-49" value="Apache &lt;br&gt;HTTPS Server" style="text;html=1;align=center;verticalAlign=middle;resizable=0;points=[];autosize=1;strokeColor=none;fillColor=none;fontSize=13;" parent="0QBkQzOjUZpYRuZvdp-9-39" vertex="1">
          <mxGeometry x="76" y="62.5" width="100" height="40" as="geometry" />
        </mxCell>
        <mxCell id="0QBkQzOjUZpYRuZvdp-9-50" value="Apache &lt;br&gt;HTTPS Server" style="text;html=1;align=center;verticalAlign=middle;resizable=0;points=[];autosize=1;strokeColor=none;fillColor=none;fontSize=13;" parent="0QBkQzOjUZpYRuZvdp-9-39" vertex="1">
          <mxGeometry x="300" y="62.5" width="100" height="40" as="geometry" />
        </mxCell>
        <mxCell id="0QBkQzOjUZpYRuZvdp-9-51" value="" style="dashed=0;outlineConnect=0;html=1;align=center;labelPosition=center;verticalLabelPosition=bottom;verticalAlign=top;shape=mxgraph.weblogos.apache;fontSize=13;" parent="0QBkQzOjUZpYRuZvdp-9-39" vertex="1">
          <mxGeometry x="291" y="55.5" width="20" height="47" as="geometry" />
        </mxCell>
        <mxCell id="0QBkQzOjUZpYRuZvdp-9-52" value="Staging" style="text;html=1;align=center;verticalAlign=middle;resizable=0;points=[];autosize=1;strokeColor=none;fillColor=none;fontSize=13;" parent="0QBkQzOjUZpYRuZvdp-9-39" vertex="1">
          <mxGeometry x="20" width="60" height="20" as="geometry" />
        </mxCell>
        <mxCell id="0QBkQzOjUZpYRuZvdp-9-67" value="" style="group" parent="1" vertex="1" connectable="0">
          <mxGeometry x="1780" y="380" width="450" height="140" as="geometry" />
        </mxCell>
        <mxCell id="0QBkQzOjUZpYRuZvdp-9-68" value="" style="rounded=0;whiteSpace=wrap;html=1;fontSize=18;" parent="0QBkQzOjUZpYRuZvdp-9-67" vertex="1">
          <mxGeometry width="450" height="140" as="geometry" />
        </mxCell>
        <mxCell id="0QBkQzOjUZpYRuZvdp-9-69" value="" style="rounded=0;whiteSpace=wrap;html=1;fontSize=18;" parent="0QBkQzOjUZpYRuZvdp-9-67" vertex="1">
          <mxGeometry x="30" y="30" width="140" height="80" as="geometry" />
        </mxCell>
        <mxCell id="0QBkQzOjUZpYRuZvdp-9-70" value="" style="sketch=0;points=[[0,0,0],[0.25,0,0],[0.5,0,0],[0.75,0,0],[1,0,0],[0,1,0],[0.25,1,0],[0.5,1,0],[0.75,1,0],[1,1,0],[0,0.25,0],[0,0.5,0],[0,0.75,0],[1,0.25,0],[1,0.5,0],[1,0.75,0]];outlineConnect=0;fontColor=#232F3E;gradientColor=#F78E04;gradientDirection=north;fillColor=#D05C17;strokeColor=#ffffff;dashed=0;verticalLabelPosition=bottom;verticalAlign=top;align=center;html=1;fontSize=12;fontStyle=0;aspect=fixed;shape=mxgraph.aws4.resourceIcon;resIcon=mxgraph.aws4.ec2;" parent="0QBkQzOjUZpYRuZvdp-9-67" vertex="1">
          <mxGeometry x="30" y="30" width="31" height="31" as="geometry" />
        </mxCell>
        <mxCell id="0QBkQzOjUZpYRuZvdp-9-71" value="Frontend EC2" style="text;html=1;align=center;verticalAlign=middle;resizable=0;points=[];autosize=1;strokeColor=none;fillColor=none;fontSize=13;" parent="0QBkQzOjUZpYRuZvdp-9-67" vertex="1">
          <mxGeometry x="61" y="35.5" width="100" height="20" as="geometry" />
        </mxCell>
        <mxCell id="0QBkQzOjUZpYRuZvdp-9-72" value="" style="sketch=0;points=[[0,0,0],[0.25,0,0],[0.5,0,0],[0.75,0,0],[1,0,0],[0,1,0],[0.25,1,0],[0.5,1,0],[0.75,1,0],[1,1,0],[0,0.25,0],[0,0.5,0],[0,0.75,0],[1,0.25,0],[1,0.5,0],[1,0.75,0]];outlineConnect=0;fontColor=#232F3E;gradientColor=#F78E04;gradientDirection=north;fillColor=#D05C17;strokeColor=#ffffff;dashed=0;verticalLabelPosition=bottom;verticalAlign=top;align=center;html=1;fontSize=12;fontStyle=0;aspect=fixed;shape=mxgraph.aws4.resourceIcon;resIcon=mxgraph.aws4.ec2;" parent="0QBkQzOjUZpYRuZvdp-9-67" vertex="1">
          <mxGeometry x="260" y="30" width="31" height="31" as="geometry" />
        </mxCell>
        <mxCell id="0QBkQzOjUZpYRuZvdp-9-73" value="" style="rounded=0;whiteSpace=wrap;html=1;fontSize=18;" parent="0QBkQzOjUZpYRuZvdp-9-67" vertex="1">
          <mxGeometry x="260" y="30" width="140" height="80" as="geometry" />
        </mxCell>
        <mxCell id="0QBkQzOjUZpYRuZvdp-9-74" value="Backend EC2" style="text;html=1;align=center;verticalAlign=middle;resizable=0;points=[];autosize=1;strokeColor=none;fillColor=none;fontSize=13;" parent="0QBkQzOjUZpYRuZvdp-9-67" vertex="1">
          <mxGeometry x="291" y="35.5" width="100" height="20" as="geometry" />
        </mxCell>
        <mxCell id="0QBkQzOjUZpYRuZvdp-9-75" value="" style="sketch=0;points=[[0,0,0],[0.25,0,0],[0.5,0,0],[0.75,0,0],[1,0,0],[0,1,0],[0.25,1,0],[0.5,1,0],[0.75,1,0],[1,1,0],[0,0.25,0],[0,0.5,0],[0,0.75,0],[1,0.25,0],[1,0.5,0],[1,0.75,0]];outlineConnect=0;fontColor=#232F3E;gradientColor=#F78E04;gradientDirection=north;fillColor=#D05C17;strokeColor=#ffffff;dashed=0;verticalLabelPosition=bottom;verticalAlign=top;align=center;html=1;fontSize=12;fontStyle=0;aspect=fixed;shape=mxgraph.aws4.resourceIcon;resIcon=mxgraph.aws4.ec2;" parent="0QBkQzOjUZpYRuZvdp-9-67" vertex="1">
          <mxGeometry x="260" y="30" width="31" height="31" as="geometry" />
        </mxCell>
        <mxCell id="0QBkQzOjUZpYRuZvdp-9-76" value="" style="dashed=0;outlineConnect=0;html=1;align=center;labelPosition=center;verticalLabelPosition=bottom;verticalAlign=top;shape=mxgraph.weblogos.apache;fontSize=13;" parent="0QBkQzOjUZpYRuZvdp-9-67" vertex="1">
          <mxGeometry x="61" y="55.5" width="20" height="47" as="geometry" />
        </mxCell>
        <mxCell id="0QBkQzOjUZpYRuZvdp-9-77" value="Apache &lt;br&gt;HTTPS Server" style="text;html=1;align=center;verticalAlign=middle;resizable=0;points=[];autosize=1;strokeColor=none;fillColor=none;fontSize=13;" parent="0QBkQzOjUZpYRuZvdp-9-67" vertex="1">
          <mxGeometry x="76" y="62.5" width="100" height="40" as="geometry" />
        </mxCell>
        <mxCell id="0QBkQzOjUZpYRuZvdp-9-78" value="Apache &lt;br&gt;HTTPS Server" style="text;html=1;align=center;verticalAlign=middle;resizable=0;points=[];autosize=1;strokeColor=none;fillColor=none;fontSize=13;" parent="0QBkQzOjUZpYRuZvdp-9-67" vertex="1">
          <mxGeometry x="300" y="62.5" width="100" height="40" as="geometry" />
        </mxCell>
        <mxCell id="0QBkQzOjUZpYRuZvdp-9-79" value="" style="dashed=0;outlineConnect=0;html=1;align=center;labelPosition=center;verticalLabelPosition=bottom;verticalAlign=top;shape=mxgraph.weblogos.apache;fontSize=13;" parent="0QBkQzOjUZpYRuZvdp-9-67" vertex="1">
          <mxGeometry x="291" y="55.5" width="20" height="47" as="geometry" />
        </mxCell>
        <mxCell id="0QBkQzOjUZpYRuZvdp-9-80" value="Production" style="text;html=1;align=center;verticalAlign=middle;resizable=0;points=[];autosize=1;strokeColor=none;fillColor=none;fontSize=13;" parent="0QBkQzOjUZpYRuZvdp-9-67" vertex="1">
          <mxGeometry x="15" width="80" height="20" as="geometry" />
        </mxCell>
        <mxCell id="0QBkQzOjUZpYRuZvdp-9-81" value="SSL padlock" style="sketch=0;outlineConnect=0;fontColor=#232F3E;gradientColor=none;strokeColor=#232F3E;fillColor=#ffffff;dashed=0;verticalLabelPosition=bottom;verticalAlign=top;align=center;html=1;fontSize=12;fontStyle=0;aspect=fixed;shape=mxgraph.aws4.resourceIcon;resIcon=mxgraph.aws4.ssl_padlock;" parent="1" vertex="1">
          <mxGeometry x="1430" y="277.5" width="60" height="60" as="geometry" />
        </mxCell>
        <mxCell id="0QBkQzOjUZpYRuZvdp-9-82" value="" style="edgeStyle=orthogonalEdgeStyle;rounded=0;orthogonalLoop=1;jettySize=auto;html=1;endArrow=none;startArrow=none;" parent="1" source="0QBkQzOjUZpYRuZvdp-9-83" target="0QBkQzOjUZpYRuZvdp-9-81" edge="1">
          <mxGeometry relative="1" as="geometry">
            <mxPoint x="1210.9999999999998" y="307.5" as="sourcePoint" />
            <mxPoint x="1660" y="307.5" as="targetPoint" />
          </mxGeometry>
        </mxCell>
        <mxCell id="0QBkQzOjUZpYRuZvdp-9-83" value="" style="aspect=fixed;html=1;points=[];align=center;image;fontSize=12;image=img/lib/azure2/networking/DNS_Zones.svg;" parent="1" vertex="1">
          <mxGeometry x="1280" y="275.55" width="64" height="64" as="geometry" />
        </mxCell>
        <mxCell id="0QBkQzOjUZpYRuZvdp-9-84" value="" style="edgeStyle=orthogonalEdgeStyle;rounded=0;orthogonalLoop=1;jettySize=auto;html=1;endArrow=none;" parent="1" source="0QBkQzOjUZpYRuZvdp-9-2" target="0QBkQzOjUZpYRuZvdp-9-83" edge="1">
          <mxGeometry relative="1" as="geometry">
            <mxPoint x="1210.9999999999998" y="307.53846153846143" as="sourcePoint" />
            <mxPoint x="1471" y="307.53846153846143" as="targetPoint" />
          </mxGeometry>
        </mxCell>
        <mxCell id="0QBkQzOjUZpYRuZvdp-9-85" value="AWS Firewall Manager" style="sketch=0;outlineConnect=0;fontColor=#232F3E;gradientColor=none;strokeColor=#ffffff;fillColor=#232F3E;dashed=0;verticalLabelPosition=middle;verticalAlign=bottom;align=center;html=1;whiteSpace=wrap;fontSize=10;fontStyle=1;spacing=3;shape=mxgraph.aws4.productIcon;prIcon=mxgraph.aws4.firewall_manager;" parent="1" vertex="1">
          <mxGeometry x="1580" y="252.5" width="80" height="110" as="geometry" />
        </mxCell>
        <mxCell id="0QBkQzOjUZpYRuZvdp-9-87" style="edgeStyle=orthogonalEdgeStyle;rounded=0;orthogonalLoop=1;jettySize=auto;html=1;entryX=1;entryY=0.5;entryDx=0;entryDy=0;" parent="1" source="0QBkQzOjUZpYRuZvdp-9-89" target="0QBkQzOjUZpYRuZvdp-9-45" edge="1">
          <mxGeometry relative="1" as="geometry" />
        </mxCell>
        <mxCell id="0QBkQzOjUZpYRuZvdp-9-88" style="edgeStyle=orthogonalEdgeStyle;rounded=0;orthogonalLoop=1;jettySize=auto;html=1;entryX=1;entryY=0.5;entryDx=0;entryDy=0;startArrow=classic;startFill=1;" parent="1" source="0QBkQzOjUZpYRuZvdp-9-89" target="0QBkQzOjUZpYRuZvdp-9-73" edge="1">
          <mxGeometry relative="1" as="geometry" />
        </mxCell>
        <mxCell id="0QBkQzOjUZpYRuZvdp-9-89" value="Solar edge&amp;nbsp;" style="rounded=0;whiteSpace=wrap;html=1;" parent="1" vertex="1">
          <mxGeometry x="2550" y="420" width="200" height="60" as="geometry" />
        </mxCell>
        <mxCell id="0QBkQzOjUZpYRuZvdp-9-90" value="Get data from solar edge by site id and api key&amp;nbsp;" style="text;html=1;strokeColor=none;fillColor=none;align=center;verticalAlign=middle;whiteSpace=wrap;rounded=0;" parent="1" vertex="1">
          <mxGeometry x="2420" y="450" width="110" height="60" as="geometry" />
        </mxCell>
        <mxCell id="0QBkQzOjUZpYRuZvdp-9-91" style="edgeStyle=orthogonalEdgeStyle;rounded=0;orthogonalLoop=1;jettySize=auto;html=1;startArrow=none;startFill=0;" parent="1" source="0QBkQzOjUZpYRuZvdp-9-93" target="0QBkQzOjUZpYRuZvdp-9-105" edge="1">
          <mxGeometry relative="1" as="geometry">
            <Array as="points">
              <mxPoint x="2330" y="291" />
              <mxPoint x="2330" y="670" />
              <mxPoint x="2179" y="670" />
            </Array>
          </mxGeometry>
        </mxCell>
        <mxCell id="0QBkQzOjUZpYRuZvdp-9-92" style="edgeStyle=orthogonalEdgeStyle;rounded=0;orthogonalLoop=1;jettySize=auto;html=1;startArrow=none;startFill=0;" parent="1" source="0QBkQzOjUZpYRuZvdp-9-93" target="0QBkQzOjUZpYRuZvdp-9-104" edge="1">
          <mxGeometry relative="1" as="geometry">
            <Array as="points">
              <mxPoint x="2310" y="291" />
              <mxPoint x="2310" y="650" />
              <mxPoint x="1981" y="650" />
            </Array>
          </mxGeometry>
        </mxCell>
        <mxCell id="0QBkQzOjUZpYRuZvdp-9-93" value="Run cron job every five minutes &lt;br&gt;to fetch the latest data for &lt;br&gt;third party vendors" style="aspect=fixed;html=1;points=[];align=center;image;fontSize=12;image=img/lib/azure2/general/Scheduler.svg;" parent="1" vertex="1">
          <mxGeometry x="2081" y="262" width="58" height="58" as="geometry" />
        </mxCell>
        <mxCell id="0QBkQzOjUZpYRuZvdp-9-94" style="edgeStyle=orthogonalEdgeStyle;rounded=0;orthogonalLoop=1;jettySize=auto;html=1;exitX=0;exitY=0.5;exitDx=0;exitDy=0;entryX=1;entryY=0.5;entryDx=0;entryDy=0;" parent="1" source="0QBkQzOjUZpYRuZvdp-9-96" target="0QBkQzOjUZpYRuZvdp-9-45" edge="1">
          <mxGeometry relative="1" as="geometry" />
        </mxCell>
        <mxCell id="0QBkQzOjUZpYRuZvdp-9-95" style="edgeStyle=orthogonalEdgeStyle;rounded=0;orthogonalLoop=1;jettySize=auto;html=1;entryX=1;entryY=0.5;entryDx=0;entryDy=0;startArrow=classic;startFill=1;" parent="1" source="0QBkQzOjUZpYRuZvdp-9-96" target="0QBkQzOjUZpYRuZvdp-9-73" edge="1">
          <mxGeometry relative="1" as="geometry" />
        </mxCell>
        <mxCell id="0QBkQzOjUZpYRuZvdp-9-96" value="Enphase" style="rounded=0;whiteSpace=wrap;html=1;" parent="1" vertex="1">
          <mxGeometry x="2550" y="150" width="200" height="60" as="geometry" />
        </mxCell>
        <mxCell id="0QBkQzOjUZpYRuZvdp-9-97" style="edgeStyle=orthogonalEdgeStyle;rounded=0;orthogonalLoop=1;jettySize=auto;html=1;exitX=0;exitY=0.5;exitDx=0;exitDy=0;entryX=1;entryY=0.5;entryDx=0;entryDy=0;" parent="1" source="0QBkQzOjUZpYRuZvdp-9-99" target="0QBkQzOjUZpYRuZvdp-9-45" edge="1">
          <mxGeometry relative="1" as="geometry">
            <mxPoint x="2290" y="310" as="targetPoint" />
          </mxGeometry>
        </mxCell>
        <mxCell id="0QBkQzOjUZpYRuZvdp-9-98" style="edgeStyle=orthogonalEdgeStyle;rounded=0;orthogonalLoop=1;jettySize=auto;html=1;exitX=0;exitY=0.5;exitDx=0;exitDy=0;entryX=1;entryY=0.5;entryDx=0;entryDy=0;startArrow=classic;startFill=1;" parent="1" source="0QBkQzOjUZpYRuZvdp-9-99" target="0QBkQzOjUZpYRuZvdp-9-73" edge="1">
          <mxGeometry relative="1" as="geometry" />
        </mxCell>
        <mxCell id="0QBkQzOjUZpYRuZvdp-9-99" value="SMA" style="rounded=0;whiteSpace=wrap;html=1;" parent="1" vertex="1">
          <mxGeometry x="2550" y="280" width="200" height="60" as="geometry" />
        </mxCell>
        <mxCell id="0QBkQzOjUZpYRuZvdp-9-100" value="Get data from SMA using client secret and client id" style="text;html=1;strokeColor=none;fillColor=none;align=center;verticalAlign=middle;whiteSpace=wrap;rounded=0;" parent="1" vertex="1">
          <mxGeometry x="2410" y="290" width="110" height="90" as="geometry" />
        </mxCell>
        <mxCell id="0QBkQzOjUZpYRuZvdp-9-101" value="Get data from enphase by user id&amp;nbsp;" style="text;html=1;strokeColor=none;fillColor=none;align=center;verticalAlign=middle;whiteSpace=wrap;rounded=0;" parent="1" vertex="1">
          <mxGeometry x="2410" y="190" width="110" height="60" as="geometry" />
        </mxCell>
        <mxCell id="0QBkQzOjUZpYRuZvdp-9-103" value="Fi system" style="dashed=0;outlineConnect=0;html=1;align=center;labelPosition=center;verticalLabelPosition=bottom;verticalAlign=top;shape=mxgraph.webicons.mongodb;gradientColor=#DFDEDE;fontSize=23;" parent="1" vertex="1">
          <mxGeometry x="1690" y="710" width="102.4" height="102.4" as="geometry" />
        </mxCell>
        <mxCell id="0QBkQzOjUZpYRuZvdp-9-104" value="Staging" style="dashed=0;outlineConnect=0;html=1;align=center;labelPosition=center;verticalLabelPosition=bottom;verticalAlign=top;shape=mxgraph.webicons.mongodb;gradientColor=#DFDEDE;fontSize=23;" parent="1" vertex="1">
          <mxGeometry x="1929.9999999999995" y="710" width="102.4" height="102.4" as="geometry" />
        </mxCell>
        <mxCell id="0QBkQzOjUZpYRuZvdp-9-105" value="Production" style="dashed=0;outlineConnect=0;html=1;align=center;labelPosition=center;verticalLabelPosition=bottom;verticalAlign=top;shape=mxgraph.webicons.mongodb;gradientColor=#DFDEDE;fontSize=23;" parent="1" vertex="1">
          <mxGeometry x="2127.6" y="710" width="102.4" height="102.4" as="geometry" />
        </mxCell>
        <mxCell id="0QBkQzOjUZpYRuZvdp-9-109" style="edgeStyle=orthogonalEdgeStyle;rounded=0;orthogonalLoop=1;jettySize=auto;html=1;exitX=0;exitY=0.5;exitDx=0;exitDy=0;" parent="1" source="0QBkQzOjUZpYRuZvdp-9-68" target="0QBkQzOjUZpYRuZvdp-9-103" edge="1">
          <mxGeometry relative="1" as="geometry">
            <Array as="points">
              <mxPoint x="1740" y="450" />
            </Array>
          </mxGeometry>
        </mxCell>
        <mxCell id="0QBkQzOjUZpYRuZvdp-9-111" style="edgeStyle=orthogonalEdgeStyle;rounded=0;orthogonalLoop=1;jettySize=auto;html=1;exitX=0;exitY=0.5;exitDx=0;exitDy=0;" parent="1" source="0QBkQzOjUZpYRuZvdp-9-40" target="0QBkQzOjUZpYRuZvdp-9-103" edge="1">
          <mxGeometry relative="1" as="geometry" />
        </mxCell>
        <mxCell id="0QBkQzOjUZpYRuZvdp-9-112" value="MongoDB Atlas" style="text;html=1;align=center;verticalAlign=middle;resizable=0;points=[];autosize=1;fontSize=25;fontFamily=Helvetica;" parent="1" vertex="1">
          <mxGeometry x="1660" y="910" width="190" height="40" as="geometry" />
        </mxCell>
        <mxCell id="0QBkQzOjUZpYRuZvdp-9-113" style="edgeStyle=orthogonalEdgeStyle;rounded=0;orthogonalLoop=1;jettySize=auto;html=1;exitX=0;exitY=0.5;exitDx=0;exitDy=0;fontFamily=Helvetica;fontSize=25;fontColor=#000000;" parent="1" source="0QBkQzOjUZpYRuZvdp-9-40" target="0QBkQzOjUZpYRuZvdp-9-104" edge="1">
          <mxGeometry relative="1" as="geometry">
            <Array as="points">
              <mxPoint x="1750" y="180" />
              <mxPoint x="1750" y="650" />
              <mxPoint x="1981" y="650" />
            </Array>
          </mxGeometry>
        </mxCell>
        <mxCell id="0QBkQzOjUZpYRuZvdp-9-114" style="edgeStyle=orthogonalEdgeStyle;rounded=0;orthogonalLoop=1;jettySize=auto;html=1;exitX=0;exitY=0.5;exitDx=0;exitDy=0;fontFamily=Helvetica;fontSize=25;fontColor=#000000;" parent="1" source="0QBkQzOjUZpYRuZvdp-9-68" target="0QBkQzOjUZpYRuZvdp-9-105" edge="1">
          <mxGeometry relative="1" as="geometry">
            <Array as="points">
              <mxPoint x="1770" y="450" />
              <mxPoint x="1770" y="670" />
              <mxPoint x="2179" y="670" />
            </Array>
          </mxGeometry>
        </mxCell>
        <mxCell id="0QBkQzOjUZpYRuZvdp-9-115" style="edgeStyle=orthogonalEdgeStyle;rounded=0;orthogonalLoop=1;jettySize=auto;html=1;startArrow=none;startFill=0;" parent="1" source="0QBkQzOjUZpYRuZvdp-9-45" target="0QBkQzOjUZpYRuZvdp-9-93" edge="1">
          <mxGeometry relative="1" as="geometry" />
        </mxCell>
        <mxCell id="0QBkQzOjUZpYRuZvdp-9-116" style="edgeStyle=orthogonalEdgeStyle;rounded=0;orthogonalLoop=1;jettySize=auto;html=1;startArrow=none;startFill=0;" parent="1" source="0QBkQzOjUZpYRuZvdp-9-73" edge="1">
          <mxGeometry relative="1" as="geometry">
            <mxPoint x="2110" y="370" as="targetPoint" />
          </mxGeometry>
        </mxCell>
        <mxCell id="0QBkQzOjUZpYRuZvdp-9-117" value="Import the smart meter&lt;br&gt;&amp;nbsp;measurement set values &lt;br&gt;into&amp;nbsp;the database" style="text;html=1;align=center;verticalAlign=middle;resizable=0;points=[];autosize=1;strokeColor=none;fillColor=none;" parent="1" vertex="1">
          <mxGeometry x="2330" y="580" width="150" height="50" as="geometry" />
        </mxCell>
        <mxCell id="0QBkQzOjUZpYRuZvdp-9-118" style="edgeStyle=orthogonalEdgeStyle;rounded=0;orthogonalLoop=1;jettySize=auto;html=1;fontSize=24;startArrow=classic;startFill=1;exitX=0.5;exitY=1;exitDx=0;exitDy=0;" parent="1" source="0QBkQzOjUZpYRuZvdp-9-1" target="0QBkQzOjUZpYRuZvdp-9-119" edge="1">
          <mxGeometry relative="1" as="geometry" />
        </mxCell>
        <mxCell id="0QBkQzOjUZpYRuZvdp-9-119" value="&lt;font style=&quot;font-size: 24px&quot;&gt;Iframe&lt;/font&gt;" style="shape=image;html=1;verticalAlign=top;verticalLabelPosition=bottom;labelBackgroundColor=#ffffff;imageAspect=0;aspect=fixed;image=https://cdn0.iconfinder.com/data/icons/evericons-24px-vol-2/24/iframe-128.png" parent="1" vertex="1">
          <mxGeometry x="1070" y="490" width="130" height="130" as="geometry" />
        </mxCell>
      </root>
    </mxGraphModel>
  </diagram>
</mxfile>
